<?xml version="1.0" encoding="UTF-8"?>
<svg width="128px" height="128px" viewBox="0 0 128 128" version="1.1" xmlns="http://www.w3.org/2000/svg" xmlns:xlink="http://www.w3.org/1999/xlink">
    <title>harmony</title>
    <g id="Page-1" stroke="none" stroke-width="1" fill="none" fill-rule="evenodd">
        <g id="harmony" fill-rule="nonzero">
            <circle id="background" fill="#7289DA" transform="translate(64.000000, 64.000000) rotate(-180.000000) translate(-64.000000, -64.000000) " cx="64" cy="64" r="64"></circle>
            <path d="M34,64 C50.5685425,64 64,50.5685425 64,34 C64,17.4314575 50.5685425,4 34,4 C67.137085,4 94,30.862915 94,64 C94,97.137085 67.137085,124 34,124 C17.4314575,124 4,110.568542 4,94 C4,77.4314575 17.4314575,64 34,64 Z" id="cutout" fill="#FFFFFF" transform="translate(49.000000, 64.000000) rotate(-180.000000) translate(-49.000000, -64.000000) "></path>
            <path d="M98,68.444444 C75.3519599,68.444444 56.7004905,84.0002198 54.2685407,104 C54.0910962,102.175923 54,100.322273 54,98.444444 C54,70.8302066 73.699471,48.444444 98,48.444444 C103.522847,48.444444 108,52.9215965 108,58.444444 C108,63.9672915 103.522847,68.444444 98,68.444444 Z" id="light" fill="#FFFFFF" transform="translate(81.000000, 76.222222) rotate(-180.000000) translate(-81.000000, -76.222222) "></path>
            <path d="M30,59.555556 C52.6480401,59.555556 71.2995095,43.9997802 73.7314593,24.0000004 C73.9089038,25.8240774 74,27.6777276 74,29.555556 C74,57.1697934 54.300529,79.555556 30,79.555556 C24.4771525,79.555556 20,75.0784035 20,69.555556 C20,64.0327085 24.4771525,59.555556 30,59.555556 Z" id="dark" fill="#7289DA" transform="translate(47.000000, 51.777778) rotate(-180.000000) translate(-47.000000, -51.777778) "></path>
        </g>
    </g>
</svg>